<?xml version="1.0" encoding="utf-8"?>
<!-- Generator: Adobe Illustrator 24.2.1, SVG Export Plug-In . SVG Version: 6.00 Build 0)  -->
<svg version="1.1" id="圖層_1" xmlns="http://www.w3.org/2000/svg" xmlns:xlink="http://www.w3.org/1999/xlink" x="0px" y="0px"
	 viewBox="0 0 45 45" style="enable-background:new 0 0 45 45;" xml:space="preserve">
<path d="M36.1,19.9c-0.3-5.7-6.3-10.3-13.6-10.3C15,9.6,8.9,14.5,8.9,20.4c0,5.5,5.1,10,11.8,10.7c0.4,0,0.7,0.4,0.7,0.8l-0.3,2.6
	c-0.1,0.6,0.5,1,1.1,0.7c5.6-2.7,9-5.5,11-7.9c0.4-0.4,1.6-2.1,1.8-2.6c0.5-0.9,0.9-1.9,1-3c0.1-0.3,0.1-0.6,0.1-0.8
	C36.1,20.6,36.1,20.1,36.1,19.9z M17.1,24h-2.8c-0.4,0-0.7-0.3-0.7-0.7v-5.3c0-0.4,0.3-0.7,0.7-0.7s0.7,0.3,0.7,0.7v4.6h2.1
	c0.4,0,0.7,0.3,0.7,0.7C17.8,23.7,17.5,24,17.1,24z M19.9,23.5c0,0.3-0.2,0.5-0.5,0.5H19c-0.3,0-0.5-0.2-0.5-0.5v-5.6
	c0-0.3,0.2-0.5,0.5-0.5h0.3c0.3,0,0.5,0.2,0.5,0.5V23.5z M26.3,23.3c0,0.4-0.3,0.7-0.7,0.7c-0.2,0-0.3-0.1-0.5-0.2
	c0,0-2.9-3.7-2.9-3.7v3.2c0,0.4-0.3,0.7-0.7,0.7c-0.4,0-0.7-0.3-0.7-0.7v-5.2c0-0.4,0.3-0.7,0.7-0.7c0.2,0,0.4,0.1,0.5,0.2
	c0,0,2.8,3.7,2.8,3.7v-3.2c0-0.4,0.3-0.7,0.7-0.7c0.4,0,0.7,0.3,0.7,0.7C26.3,18.1,26.3,23.3,26.3,23.3z M30.8,20
	c0.4,0,0.7,0.3,0.7,0.7s-0.3,0.7-0.7,0.7h-2.1v1.2h2.1c0.4,0,0.7,0.3,0.7,0.7c0,0.4-0.3,0.7-0.7,0.7h-2.8c-0.4,0-0.7-0.3-0.7-0.7
	v-5.3c0-0.4,0.3-0.7,0.7-0.7h2.8c0.4,0,0.7,0.3,0.7,0.7s-0.3,0.7-0.7,0.7h-2.1V20L30.8,20L30.8,20z"/>
</svg>
