<?xml version="1.0" encoding="utf-8"?>
<!-- Generator: Adobe Illustrator 27.8.1, SVG Export Plug-In . SVG Version: 6.00 Build 0)  -->
<svg version="1.1" id="圖層_1" xmlns="http://www.w3.org/2000/svg" xmlns:xlink="http://www.w3.org/1999/xlink" x="0px" y="0px"
	 viewBox="0 0 32 32" style="enable-background:new 0 0 32 32;" xml:space="preserve">
<style type="text/css">
	.st0{fill:#0F4196;}
</style>
<g id="Layer">
	<path class="st0" d="M30,16c0,1.1-0.6,2.2-1.7,2.7L7.5,28.9c-1.1,0.5-2.3,0.4-3.2-0.4c-0.9-0.8-1.3-2-1-3.1L5.7,17H16
		c0.6,0,1-0.4,1-1c0-0.6-0.4-1-1-1H5.7L3.3,6.6C2.8,5,3.7,3.3,5.3,2.9C6,2.7,6.8,2.7,7.5,3.1l20.9,10.2C29.4,13.8,30,14.9,30,16z"/>
</g>
</svg>
